#N canvas 682 667 392 165 10;
#X obj 6 87 cnv 15 240 60 empty empty empty 20 12 0 14 -233017 -66577
0;
#X obj 17 111 hsl 150 30 0 127 0 0 slider empty empty -2 -8 0 10 -262144
-1 -1 0 1;
#X obj 288 53 tgl 30 0 empty state empty 35 7 0 10 -260097 -1 -1 0
1;
#X obj 10 10 numberbox 80 30 xxx ip1 0 256 127;
#X obj 10 50 numberbox 80 30 setport port 0 100000 9001;
#X obj 93 10 numberbox 80 30 setip2 ip2 0 256 0;
#X obj 176 10 numberbox 80 30 setip3 ip3 0 256 0;
#X obj 259 10 numberbox 80 30 setip4 ip4 0 256 1;
#X obj 135 51 bng 30 250 50 0 con empty empty 17 7 0 10 -4034 -1 -1
;
#X obj 202 51 bng 30 250 50 0 dis empty empty 17 7 0 10 -4034 -1 -1
;
#N canvas 725 118 450 300 guts 0;
#N canvas 538 513 429 329 network 0;
#X msg 82 243 disconnect;
#X obj 300 216 list prepend send;
#X obj 301 237 list trim;
#X obj 300 196 oscformat;
#X obj 264 116 list split 1;
#X msg 300 164 set \$1;
#X obj 264 164 list;
#X obj 264 140 t b a;
#X obj 37 279 netsend -u -b;
#X obj 4 243 print args;
#X obj 37 305 outlet;
#X obj 37 22 inlet;
#X obj 37 52 select 1;
#X obj 56 135 symbol 127.0.0.1;
#X text 37 5 connect;
#X obj 149 31 inlet;
#X text 153 10 ip;
#X obj 209 29 inlet;
#X text 211 9 port;
#X text 262 6 OSC: /label value;
#X msg 56 181 set connect \$1 \$2;
#X msg 37 213 connect 127.0.0.1 9001;
#X obj 37 85 t b b b;
#X obj 264 30 inlet;
#X obj 56 158 pack s f;
#X obj 101 112 i 9001;
#X connect 0 0 8 0;
#X connect 1 0 2 0;
#X connect 2 0 8 0;
#X connect 3 0 1 0;
#X connect 4 0 7 0;
#X connect 4 1 6 1;
#X connect 5 0 3 0;
#X connect 6 0 3 0;
#X connect 7 0 6 0;
#X connect 7 1 5 0;
#X connect 8 0 10 0;
#X connect 11 0 12 0;
#X connect 12 0 22 0;
#X connect 12 1 0 0;
#X connect 13 0 24 0;
#X connect 15 0 13 1;
#X connect 17 0 25 1;
#X connect 20 0 21 0;
#X connect 21 0 8 0;
#X connect 21 0 9 0;
#X connect 22 0 21 0;
#X connect 22 1 13 0;
#X connect 22 2 25 0;
#X connect 23 0 4 0;
#X connect 24 0 20 0;
#X connect 25 0 24 1;
#X restore 36 169 pd network;
#X obj 122 46 r port;
#X obj 245 170 pack f f f f;
#X obj 268 148 int;
#X obj 291 148 int;
#X obj 314 148 int;
#X msg 245 191 symbol \$1.\$2.\$3.\$4;
#X obj 245 67 r ip1;
#X obj 268 87 r ip2;
#X obj 291 107 r ip3;
#X obj 314 127 r ip4;
#X obj 245 148 int;
#X obj 36 194 s state;
#X obj 122 66 i;
#X floatatom 327 31 5 0 0 0 - - -, f 5;
#X floatatom 327 53 5 0 0 0 - - -, f 5;
#X floatatom 325 76 5 0 0 0 - - -, f 5;
#X floatatom 325 98 5 0 0 0 - - -, f 5;
#X msg 203 135 bang;
#X obj 174 49 r osc;
#X obj 36 45 r con;
#X msg 36 80 1;
#X obj 78 45 r dis;
#X msg 78 80 0;
#X connect 0 0 12 0;
#X connect 1 0 13 0;
#X connect 2 0 6 0;
#X connect 3 0 2 1;
#X connect 4 0 2 2;
#X connect 5 0 2 3;
#X connect 6 0 0 1;
#X connect 7 0 11 0;
#X connect 7 0 14 0;
#X connect 7 0 18 0;
#X connect 8 0 3 0;
#X connect 8 0 15 0;
#X connect 8 0 18 0;
#X connect 9 0 4 0;
#X connect 9 0 16 0;
#X connect 9 0 18 0;
#X connect 10 0 5 0;
#X connect 10 0 17 0;
#X connect 10 0 18 0;
#X connect 11 0 2 0;
#X connect 13 0 0 2;
#X connect 18 0 2 0;
#X connect 19 0 0 3;
#X connect 20 0 21 0;
#X connect 21 0 0 0;
#X connect 22 0 23 0;
#X connect 23 0 0 0;
#X restore 113 152 pd guts;
#N canvas 2 50 559 303 msgs 0;
#X obj 13 58 r slider;
#X obj 135 192 s osc;
#X obj 345 58 r whatever;
#X msg 345 92 /whatever \$1;
#X text 434 93 and so on...;
#X obj 70 58 r bang1;
#X msg 13 97 /vol \$1;
#X obj 120 58 r toggle1;
#X msg 120 92 /onoff \$1;
#X msg 70 92 /go 1;
#X msg 185 93 /choice \$1;
#X obj 185 59 r hr1;
#X obj 271 50 r bonk;
#X msg 271 84 /hit \$1;
#X connect 0 0 6 0;
#X connect 2 0 3 0;
#X connect 3 0 1 0;
#X connect 5 0 9 0;
#X connect 6 0 1 0;
#X connect 7 0 8 0;
#X connect 8 0 1 0;
#X connect 9 0 1 0;
#X connect 10 0 1 0;
#X connect 11 0 10 0;
#X connect 12 0 13 0;
#X connect 13 0 1 0;
#X restore 10 152 pd msgs;
#N canvas 2 50 450 300 help 0;
#X text 20 42 this is a patch that sends OSC messages from the slider.
it requieres PdDroidParty abstractions. it is thought to run in a mobile
device with PdDroidParty installed http://www.droidparty.net/;
#X restore 61 152 pd help;
#X text 340 20 IP;
#X text 92 56 PORT;
#X text 233 56 STOP;
#X text 166 55 GO;
#X text 322 58 STATE;
#X obj 173 111 bng 30 250 50 0 bang1 empty empty 17 7 0 10 -262144
-1 -1;
#X obj 206 111 tgl 30 0 toggle1 empty empty 17 7 0 10 -262144 -1 -1
0 1;
#X text 18 90 SENDING OSC FROM THE WIDGETS BELOW;
#N canvas 2 50 450 300 hit 0;
#X obj 75 48 adc~;
#X obj 76 95 bonk~;
#X obj 102 147 unpack f f f;
#X obj 136 180 s bonk;
#X obj 117 32 r thres;
#X msg 117 54 minvel \$1;
#X obj 102 121 spigot 0;
#X obj 199 74 r hits;
#X connect 0 0 1 0;
#X connect 0 1 1 0;
#X connect 1 1 6 0;
#X connect 2 1 3 0;
#X connect 4 0 5 0;
#X connect 5 0 1 0;
#X connect 6 0 2 0;
#X connect 7 0 6 1;
#X restore 166 151 pd hit;
#X obj 251 88 cnv 15 120 60 empty empty empty 20 12 0 14 -204800 -66577
0;
#X obj 256 91 tgl 25 0 hits empty empty 17 7 0 10 -262144 -1 -1 0 1
;
#X obj 259 118 hsl 90 25 0 100 0 0 thres empty empty -2 -8 0 10 -262144
-1 -1 0 1;
#X text 280 97 < REPORT HITS;
#X text 287 122 THRESHOLD;
