#N canvas 392 493 392 165 10;
#X obj 288 46 tgl 30 0 empty state empty 35 7 0 10 -260097 -1 -1 1
1;
#X obj 10 10 numberbox 80 30 xxx ip1 0 256 127;
#X obj 10 43 numberbox 80 30 setport port 0 100000 9001;
#X obj 93 10 numberbox 80 30 setip2 ip2 0 256 0;
#X obj 176 10 numberbox 80 30 setip3 ip3 0 256 0;
#X obj 259 10 numberbox 80 30 setip4 ip4 0 256 1;
#X obj 135 44 bng 30 250 50 0 con empty empty 17 7 0 10 -4034 -1 -1
;
#X obj 202 44 bng 30 250 50 0 dis empty empty 17 7 0 10 -4034 -1 -1
;
#N canvas 725 118 450 300 guts 0;
#N canvas 538 513 429 329 network 0;
#X msg 82 243 disconnect;
#X obj 300 216 list prepend send;
#X obj 301 237 list trim;
#X obj 300 196 oscformat;
#X obj 264 116 list split 1;
#X msg 300 164 set \$1;
#X obj 264 164 list;
#X obj 264 140 t b a;
#X obj 37 279 netsend -u -b;
#X obj 4 243 print args;
#X obj 37 305 outlet;
#X obj 37 22 inlet;
#X obj 37 52 select 1;
#X obj 56 135 symbol 127.0.0.1;
#X text 37 5 connect;
#X obj 149 31 inlet;
#X text 153 10 ip;
#X obj 209 29 inlet;
#X text 211 9 port;
#X text 262 6 OSC: /label value;
#X msg 56 181 set connect \$1 \$2;
#X msg 37 213 connect 192.168.0.8 9001;
#X obj 37 85 t b b b;
#X obj 264 30 inlet;
#X obj 56 158 pack s f;
#X obj 101 112 i 9001;
#X connect 0 0 8 0;
#X connect 1 0 2 0;
#X connect 2 0 8 0;
#X connect 3 0 1 0;
#X connect 4 0 7 0;
#X connect 4 1 6 1;
#X connect 5 0 3 0;
#X connect 6 0 3 0;
#X connect 7 0 6 0;
#X connect 7 1 5 0;
#X connect 8 0 10 0;
#X connect 11 0 12 0;
#X connect 12 0 22 0;
#X connect 12 1 0 0;
#X connect 13 0 24 0;
#X connect 15 0 13 1;
#X connect 17 0 25 1;
#X connect 20 0 21 0;
#X connect 21 0 8 0;
#X connect 21 0 9 0;
#X connect 22 0 21 0;
#X connect 22 1 13 0;
#X connect 22 2 25 0;
#X connect 23 0 4 0;
#X connect 24 0 20 0;
#X connect 25 0 24 1;
#X restore 36 169 pd network;
#X obj 122 46 r port;
#X obj 245 170 pack f f f f;
#X obj 268 148 int;
#X obj 291 148 int;
#X obj 314 148 int;
#X msg 245 191 symbol \$1.\$2.\$3.\$4;
#X obj 245 67 r ip1;
#X obj 268 87 r ip2;
#X obj 291 107 r ip3;
#X obj 314 127 r ip4;
#X obj 245 148 int;
#X obj 36 194 s state;
#X obj 122 66 i;
#X floatatom 327 31 5 0 0 0 - - -, f 5;
#X floatatom 327 53 5 0 0 0 - - -, f 5;
#X floatatom 325 76 5 0 0 0 - - -, f 5;
#X floatatom 325 98 5 0 0 0 - - -, f 5;
#X msg 203 135 bang;
#X obj 174 49 r osc;
#X obj 36 45 r con;
#X msg 36 80 1;
#X obj 78 45 r dis;
#X msg 78 80 0;
#X connect 0 0 12 0;
#X connect 1 0 13 0;
#X connect 2 0 6 0;
#X connect 3 0 2 1;
#X connect 4 0 2 2;
#X connect 5 0 2 3;
#X connect 6 0 0 1;
#X connect 7 0 11 0;
#X connect 7 0 14 0;
#X connect 7 0 18 0;
#X connect 8 0 3 0;
#X connect 8 0 15 0;
#X connect 8 0 18 0;
#X connect 9 0 4 0;
#X connect 9 0 16 0;
#X connect 9 0 18 0;
#X connect 10 0 5 0;
#X connect 10 0 17 0;
#X connect 10 0 18 0;
#X connect 11 0 2 0;
#X connect 13 0 0 2;
#X connect 18 0 2 0;
#X connect 19 0 0 3;
#X connect 20 0 21 0;
#X connect 21 0 0 0;
#X connect 22 0 23 0;
#X connect 23 0 0 0;
#X restore 113 152 pd guts;
#N canvas 260 366 559 303 msgs 0;
#X obj 135 192 s osc;
#X obj 345 58 r whatever;
#X msg 345 92 /whatever \$1;
#X text 434 93 and so on...;
#X obj 271 50 r bonk;
#X msg 271 84 /hit \$1;
#X obj 185 59 r fpitch;
#X obj 120 58 r famp;
#X msg 120 92 /amp \$1;
#X msg 185 93 /pich \$1;
#X connect 1 0 2 0;
#X connect 2 0 0 0;
#X connect 4 0 5 0;
#X connect 5 0 0 0;
#X connect 6 0 9 0;
#X connect 7 0 8 0;
#X connect 8 0 0 0;
#X connect 9 0 0 0;
#X restore 10 152 pd msgs;
#N canvas 2 50 450 300 help 0;
#X text 20 42 this is a patch that sends OSC messages from the slider.
it requieres PdDroidParty abstractions. it is thought to run in a mobile
device with PdDroidParty installed http://www.droidparty.net/;
#X restore 61 152 pd help;
#X text 340 20 IP;
#X text 92 49 PORT;
#X text 233 49 STOP;
#X text 166 48 GO;
#X text 322 51 STATE;
#N canvas 2 50 450 300 hit 0;
#X obj 75 48 adc~;
#X obj 76 95 bonk~;
#X obj 102 147 unpack f f f;
#X obj 136 180 s bonk;
#X obj 117 32 r thres;
#X msg 117 54 minvel \$1;
#X obj 102 121 spigot 0;
#X obj 266 116 fiddle~;
#X obj 266 172 mtof;
#X obj 261 220 s fpitch;
#X obj 324 218 s famp;
#X obj 319 144 spigot 0;
#X obj 258 146 spigot 0;
#X obj 257 33 r gethits;
#X obj 333 42 r getpitch;
#X connect 0 0 1 0;
#X connect 0 0 7 0;
#X connect 0 1 1 0;
#X connect 0 1 7 0;
#X connect 1 1 6 0;
#X connect 2 1 3 0;
#X connect 4 0 5 0;
#X connect 5 0 1 0;
#X connect 6 0 2 0;
#X connect 7 0 12 0;
#X connect 7 3 11 0;
#X connect 8 0 9 0;
#X connect 11 0 10 0;
#X connect 12 0 8 0;
#X connect 13 0 6 1;
#X connect 14 0 12 1;
#X connect 14 0 11 1;
#X restore 166 151 pd hit;
#X obj 8 77 cnv 15 240 65 empty empty empty 20 12 0 14 -204800 -66577
0;
#X obj 21 82 tgl 25 0 gethits empty empty 17 7 0 10 -262144 -1 -1 1
1;
#X obj 132 83 hsl 90 25 0 300 0 0 thres empty empty -2 -8 0 10 -262144
-1 -1 8900 1;
#X text 137 88 HIT THRESHOLD;
#X text 48 85 < GET HITS;
#X obj 21 113 tgl 25 0 getpitch empty empty 17 7 0 10 -262144 -1 -1
0 1;
#X text 48 116 < GET PITCH;
